<svg height='100px' width='100px'  fill="#1a1a1a" xmlns="http://www.w3.org/2000/svg" data-name="Layer 1" viewBox="0 0 24 24" x="0px" y="0px"><path d="M15,0H9A3,3,0,0,0,6,3V4H2A1,1,0,0,0,2,6H3.054L3.9,21.167a3,3,0,0,0,3,2.833H17.108a3,3,0,0,0,3-2.833L20.946,6H22a1,1,0,0,0,0-2H18V3A3,3,0,0,0,15,0ZM8,3A1,1,0,0,1,9,2h6a1,1,0,0,1,1,1V4H8ZM18.106,21.056a1,1,0,0,1-1,.944H6.892a1,1,0,0,1-1-.944L5.057,6H18.943Z"></path><path d="M12,10a1,1,0,0,0-1,1v6a1,1,0,0,0,2,0V11A1,1,0,0,0,12,10Z"></path><path d="M16,10a1,1,0,0,0-1,1v6a1,1,0,0,0,2,0V11A1,1,0,0,0,16,10Z"></path><path d="M8,10a1,1,0,0,0-1,1v6a1,1,0,0,0,2,0V11A1,1,0,0,0,8,10Z"></path></svg>