<svg height='100px' width='100px'  fill="#1A1A1A" xmlns="http://www.w3.org/2000/svg" data-name="Layer 1" viewBox="0 0 32 32" x="0px" y="0px"><path d="M2,28a3,3,0,0,0,3,3h5a1,1,0,0,0,0-2H5a1,1,0,0,1-1-1V6A1,1,0,0,1,5,5H7V6A1,1,0,0,0,9,6V5h4V6a1,1,0,0,0,2,0V5h4V6a1,1,0,0,0,2,0V5h2a1,1,0,0,1,1,1v6a1,1,0,0,0,2,0V6a3,3,0,0,0-3-3H21V2a1,1,0,0,0-2,0V3H15V2a1,1,0,1,0-2,0V3H9V2A1,1,0,0,0,7,2V3H5A3,3,0,0,0,2,6Z"></path><path d="M8,12H20a1,1,0,0,0,0-2H8a1,1,0,1,0,0,2Z"></path><path d="M8,16H18a1,1,0,1,0,0-2H8a1,1,0,1,0,0,2Z"></path><path d="M16,19a1,1,0,0,0-1-1H8a1,1,0,1,0,0,2h7A1,1,0,0,0,16,19Z"></path><path d="M8,22a1,1,0,1,0,0,2h4a1,1,0,0,0,0-2Z"></path><path d="M14,31a.882.882,0,0,0,.23-.024L17.94,30.1a.993.993,0,0,0,.477-.266L29.169,19.077a3,3,0,0,0-4.242-4.242L14.175,25.587a1,1,0,0,0-.266.476l-.878,3.707A1.01,1.01,0,0,0,14,31Zm1.785-4.2L26.341,16.249a1.006,1.006,0,0,1,1.414,1.414L17.2,28.215l-1.852.438Z"></path></svg>